<?xml version="1.0" encoding="utf-8"?>
<!-- Generator: Adobe Illustrator 16.0.0, SVG Export Plug-In . SVG Version: 6.00 Build 0)  -->
<!DOCTYPE svg PUBLIC "-//W3C//DTD SVG 1.1//EN" "http://www.w3.org/Graphics/SVG/1.1/DTD/svg11.dtd">
<svg version="1.1" id="Layer_1" xmlns="http://www.w3.org/2000/svg" xmlns:xlink="http://www.w3.org/1999/xlink" x="0px" y="0px"
	 width="18px" height="11px" viewBox="0 0 18 11" enable-background="new 0 0 18 11" xml:space="preserve">
<g>
	<path id="path-1" fill="#FFFFFF" d="M9.734,7.382l7.424-5.527C17.498,1.601,18,1.831,18,2.239v7.757C18,10.551,17.522,11,16.934,11
		H1.066C0.478,11,0,10.551,0,9.996V2.24c0-0.409,0.502-0.638,0.842-0.384l7.409,5.524C8.686,7.705,9.299,7.705,9.734,7.382
		L9.734,7.382z M1.505,0C1.017,0,0.807,0.583,1.194,0.863l7.283,5.264C8.78,6.346,9.201,6.346,9.504,6.129l7.299-5.266
		C17.191,0.583,16.98,0,16.492,0H1.505L1.505,0z"/>
</g>
<title>envelope</title>
<desc>Created with Sketch.</desc>
<g id="Icons">
	<g id="Icon_x2F_Email" transform="translate(-3.000000, -7.000000)">
		<g id="envelope">
			<path id="path-1_1_" fill="#408CE0" d="M12.734,14.382l7.424-5.527C20.498,8.601,21,8.831,21,9.239v7.757
				C21,17.551,20.522,18,19.934,18H4.066C3.478,18,3,17.551,3,16.996V9.24c0-0.409,0.502-0.638,0.842-0.384l7.409,5.524
				C11.686,14.705,12.299,14.705,12.734,14.382L12.734,14.382z M4.505,7C4.017,7,3.807,7.583,4.194,7.863l7.283,5.264
				c0.303,0.219,0.723,0.219,1.026,0.002l7.299-5.266C20.191,7.583,19.98,7,19.492,7H4.505L4.505,7z"/>
		</g>
	</g>
</g>
</svg>
