<?xml version="1.0" encoding="UTF-8"?>
<svg width="18px" height="20px" viewBox="0 0 18 20" version="1.1" xmlns="http://www.w3.org/2000/svg" xmlns:xlink="http://www.w3.org/1999/xlink">
    <!-- Generator: Sketch 50.2 (55047) - http://www.bohemiancoding.com/sketch -->
    <title>Mask</title>
    <desc>Created with Sketch.</desc>
    <defs>
        <path d="M19.2,5 L18.3,5 L18.3,2 L16.5,2 L16.5,7 L15.6,7 L15.6,5 L9.3,5 L9.3,2 L7.5,2 L7.5,7 L6.6,7 L6.6,5 L4.8,5 C3.8073,5 3,5.898 3,7 L3,20 C3,21.103 3.8073,22 4.8,22 L19.2,22 C20.1927,22 21,21.103 21,20 L21,7 C21,5.898 20.1927,5 19.2,5 Z M19.1973,20 L4.8,20 L4.8,9 L19.2,9 L19.1973,20 Z" id="path-1"></path>
    </defs>
    <g id="Icons" stroke="none" stroke-width="1" fill="none" fill-rule="evenodd">
        <g id="Icon/Calendar" transform="translate(-3.000000, -2.000000)">
            <mask id="mask-2" fill="white">
                <use xlink:href="#path-1"></use>
            </mask>
            <use id="Mask" fill="#408CE0" xlink:href="#path-1"></use>
        </g>
    </g>
</svg>