<?xml version="1.0" encoding="UTF-8"?>
<svg width="14px" height="22px" viewBox="0 0 14 22" version="1.1" xmlns="http://www.w3.org/2000/svg" xmlns:xlink="http://www.w3.org/1999/xlink">
    <!-- Generator: Sketch 51.2 (57519) - http://www.bohemiancoding.com/sketch -->
    <title>Shape</title>
    <desc>Created with Sketch.</desc>
    <defs>
        <path d="M7.7875,5.71334699e-05 L0.320833333,2.20005142 C0.134896067,2.28770755 0,2.46473845 0,2.64005028 L0,19.8000057 C0,20.0200051 0.145833333,20.1953174 0.379166667,20.2400046 L7.84583333,22 L7.93333333,22 C8.0263022,22 8.1174478,21.9621878 8.21041667,21.9175002 C8.30338553,21.8298441 8.4,21.6923444 8.4,21.5600011 L8.4,0.440055991 C8.4,0.307712694 8.30338553,0.170213052 8.21041667,0.0825569192 C8.0700522,-0.00509912514 7.92786447,5.71334699e-05 7.7875,5.71334699e-05 Z M9.33333333,1.76005256 L9.33333333,2.64005028 L13.0666667,2.64005028 L13.0666667,19.3600069 L9.33333333,19.3600069 L9.33333333,20.2400046 L13.5333333,20.2400046 C13.7903645,20.2400046 14,20.0423487 14,19.8000057 L14,2.20005142 C14,1.95770841 13.7903645,1.76005256 13.5333333,1.76005256 L9.33333333,1.76005256 Z M6.53333333,10.5600297 C6.81406273,10.5600297 7,10.8676853 7,11.220028 C7,11.5723707 6.81406273,11.8800263 6.53333333,11.8800263 C6.2526044,11.8800263 6.06666667,11.5723707 6.06666667,11.220028 C6.06666667,10.8676853 6.2526044,10.5600297 6.53333333,10.5600297 Z" id="path-1"></path>
    </defs>
    <g id="Icons" stroke="none" stroke-width="1" fill="none" fill-rule="evenodd">
        <g id="Icon/Door" transform="translate(-5.000000, -1.000000)">
            <g id="icons8-door_opened_filled" transform="translate(5.000000, 1.000000)">
                <mask id="mask-2" fill="white">
                    <use xlink:href="#path-1"></use>
                </mask>
                <use id="Shape" fill="#FFFFFF" fill-rule="nonzero" xlink:href="#path-1"></use>
            </g>
        </g>
    </g>
</svg>