<?xml version="1.0" encoding="UTF-8"?>
<svg width="22px" height="22px" viewBox="0 0 22 22" version="1.1" xmlns="http://www.w3.org/2000/svg" xmlns:xlink="http://www.w3.org/1999/xlink">
    <!-- Generator: Sketch 51.2 (57519) - http://www.bohemiancoding.com/sketch -->
    <title>Icon</title>
    <desc>Created with Sketch.</desc>
    <defs>
        <path d="M14,3.5 C8.225,3.5 3.5,8.225 3.5,14 C3.5,19.775 8.225,24.5 14,24.5 C19.775,24.5 24.5,19.775 24.5,14 C24.5,8.225 19.775,3.5 14,3.5 Z M14,22.75 C11.8125,22.75 9.8,21.9625 8.3125,20.5625 C9.8,18.1125 8.8375,16.625 8.1375,16.0125 C7.9625,15.8375 7.7875,15.6625 7.525,15.4875 C7,15.05 6.65,14.7875 6.65,14 C6.65,13.65 6.825,13.475 7.875,13.125 C8.575,12.8625 9.45,12.6 9.975,11.9 C11.2,10.325 9.8875,7.875 9.625,7.4375 C9.45,7.175 9.275,6.9125 9.1,6.7375 C10.4125,5.8625 11.9875,5.3375 13.65,5.25 C14,5.6875 14.4375,6.125 14.875,6.475 C15.225,6.825 15.8375,6.9125 16.1875,7.35 C16.3625,7.6125 16.275,7.9625 16.275,8.3125 C16.275,8.8375 16.625,9.625 17.7625,9.625 L17.9375,9.625 C18.375,9.625 19.775,9.275 21.0875,8.8375 C22.1375,10.325 22.8375,12.075 22.8375,14 C22.75,18.8125 18.8125,22.75 14,22.75 Z M17.0625,11.2875 C15.6625,11.2875 14.2625,11.9 13.5625,12.95 C13.125,13.5625 12.95,14.35 13.125,15.05 C13.5625,16.45 13.65,17.325 13.3,18.2875 C13.0375,19.1625 13.0375,20.3875 14.4375,20.9125 C14.7,21 14.9625,21.0875 15.3125,21.0875 C16.3625,21.0875 17.675,20.3875 18.725,19.25 C20.125,17.85 20.9125,16.1875 20.825,14.7 C21,12.8625 19.25,11.2875 17.0625,11.2875 Z" id="path-1"></path>
    </defs>
    <g id="Symbols" stroke="none" stroke-width="1" fill="none" fill-rule="evenodd">
        <g id="Row/Input-Ghost-Rev" transform="translate(-325.000000, -39.000000)">
            <g id="Row/Input-Ghost">
                <g id="Icon/Globe" transform="translate(322.000000, 36.000000)">
                    <rect id="Bounding-Box" x="0" y="0" width="28" height="28"></rect>
                    <mask id="mask-2" fill="white">
                        <use xlink:href="#path-1"></use>
                    </mask>
                    <g id="Mask" fill-rule="nonzero"></g>
                    <g id="Mixin/Fill/Accent-2" mask="url(#mask-2)" fill="#71BE6B" fill-rule="evenodd">
                        <rect id="Box" x="0" y="0" width="28" height="28"></rect>
                    </g>
                </g>
            </g>
        </g>
    </g>
</svg>