<?xml version="1.0" encoding="UTF-8"?>
<svg width="127px" height="111px" viewBox="0 0 127 111" version="1.1" xmlns="http://www.w3.org/2000/svg" xmlns:xlink="http://www.w3.org/1999/xlink">
    <!-- Generator: Sketch 51.2 (57519) - http://www.bohemiancoding.com/sketch -->
    <title>Logo Text</title>
    <desc>Created with Sketch.</desc>
    <defs>
        <polygon id="path-1" points="127 0 1.00354233e-14 0 0 62 127 62 127 6.89324602e-15"></polygon>
    </defs>
    <g id="Symbols" stroke="none" stroke-width="1" fill="none" fill-rule="evenodd">
        <g id="UI/Logo-Text">
            <g id="Logo-Text">
                <rect id="Background" fill="#FF0439" x="0" y="77" width="127" height="5"></rect>
                <rect id="Background" fill="#FF0439" x="0" y="106" width="127" height="5"></rect>
                <path d="M6.797715,89.432 L9.989715,89.432 L10.889715,94.508 L10.913715,94.508 L11.813715,89.432 L15.005715,89.432 L15.005715,98 L12.917715,98 L12.917715,91.616 L12.893715,91.616 L11.705715,98 L10.097715,98 L8.909715,91.616 L8.885715,91.616 L8.885715,98 L6.797715,98 L6.797715,89.432 Z M21.120572,89.432 L26.196572,89.432 L26.196572,91.256 L23.352572,91.256 L23.352572,92.72 L26.016572,92.72 L26.016572,94.472 L23.352572,94.472 L23.352572,96.176 L26.304572,96.176 L26.304572,98 L21.120572,98 L21.120572,89.432 Z M32.179429,89.432 L35.371429,89.432 L36.271429,94.508 L36.295429,94.508 L37.195429,89.432 L40.387429,89.432 L40.387429,98 L38.299429,98 L38.299429,91.616 L38.275429,91.616 L37.087429,98 L35.479429,98 L34.291429,91.616 L34.267429,91.616 L34.267429,98 L32.179429,98 L32.179429,89.432 Z M48.806286,96.392 L49.430286,96.392 C49.638287,96.392 49.8222852,96.3060009 49.982286,96.134 C50.1422868,95.9619991 50.222286,95.6960018 50.222286,95.336 C50.222286,94.9999983 50.1422868,94.7440009 49.982286,94.568 C49.8222852,94.3919991 49.638287,94.304 49.430286,94.304 L48.806286,94.304 L48.806286,96.392 Z M48.806286,92.792 L49.346286,92.792 C49.5782872,92.792 49.7542854,92.7060009 49.874286,92.534 C49.9942866,92.3619991 50.054286,92.1600012 50.054286,91.928 C50.054286,91.6879988 49.9942866,91.4800009 49.874286,91.304 C49.7542854,91.1279991 49.5782872,91.04 49.346286,91.04 L48.806286,91.04 L48.806286,92.792 Z M46.574286,89.432 L49.946286,89.432 C50.74629,89.432 51.3362841,89.6259981 51.716286,90.014 C52.0962879,90.4020019 52.286286,90.9199968 52.286286,91.568 C52.286286,91.7920011 52.2602863,92.0099989 52.208286,92.222 C52.1562857,92.4340011 52.0762865,92.6259991 51.968286,92.798 C51.8602855,92.9700009 51.7222868,93.1159994 51.554286,93.236 C51.3862852,93.3560006 51.1822872,93.4399998 50.942286,93.488 L50.942286,93.512 C51.2222874,93.5360001 51.462285,93.6099994 51.662286,93.734 C51.862287,93.8580006 52.0262854,94.0119991 52.154286,94.196 C52.2822866,94.3800009 52.3762857,94.5819989 52.436286,94.802 C52.4962863,95.0220011 52.526286,95.2439989 52.526286,95.468 C52.526286,95.8360018 52.4782865,96.1759984 52.382286,96.488 C52.2862855,96.8000016 52.136287,97.0679989 51.932286,97.292 C51.728285,97.5160011 51.4622876,97.6899994 51.134286,97.814 C50.8062844,97.9380006 50.4102883,98 49.946286,98 L46.574286,98 L46.574286,89.432 Z M58.533143,89.432 L63.609143,89.432 L63.609143,91.256 L60.765143,91.256 L60.765143,92.72 L63.429143,92.72 L63.429143,94.472 L60.765143,94.472 L60.765143,96.176 L63.717143,96.176 L63.717143,98 L58.533143,98 L58.533143,89.432 Z M71.908,93.056 L72.352,93.056 C72.6720016,93.056 72.9079992,92.9620009 73.06,92.774 C73.2120008,92.5859991 73.288,92.3400015 73.288,92.036 C73.288,91.6759982 73.2140007,91.4200008 73.066,91.268 C72.9179993,91.1159992 72.6760017,91.04 72.34,91.04 L71.908,91.04 L71.908,93.056 Z M69.676,89.432 L73.168,89.432 C73.5920021,89.432 73.9539985,89.4879994 74.254,89.6 C74.5540015,89.7120006 74.7979991,89.869999 74.986,90.074 C75.1740009,90.278001 75.3099996,90.5199986 75.394,90.8 C75.4780004,91.0800014 75.52,91.3839984 75.52,91.712 C75.52,92.2880029 75.4040012,92.7519982 75.172,93.104 C74.9399988,93.4560018 74.5680026,93.6719996 74.056,93.752 L74.056,93.776 C74.5920027,93.8240002 74.959999,94.0119984 75.16,94.34 C75.360001,94.6680016 75.46,95.1199971 75.46,95.696 L75.46,96.776 C75.46,96.8960006 75.464,97.0099995 75.472,97.118 C75.48,97.2260005 75.4919999,97.3239996 75.508,97.412 C75.5240001,97.5000004 75.5439999,97.5679998 75.568,97.616 C75.6000002,97.6640002 75.6319998,97.7099998 75.664,97.754 C75.6960002,97.7980002 75.7479996,97.8399998 75.82,97.88 L75.82,98 L73.444,98 C73.3879997,97.8879994 73.3460001,97.7560008 73.318,97.604 C73.2899999,97.4519992 73.2700001,97.3000008 73.258,97.148 C73.2459999,96.9959992 73.238,96.8500007 73.234,96.71 C73.23,96.5699993 73.228,96.4560004 73.228,96.368 L73.228,95.792 C73.228,95.5519988 73.2160001,95.3520008 73.192,95.192 C73.1679999,95.0319992 73.1260003,94.9060005 73.066,94.814 C73.0059997,94.7219995 72.9300005,94.6580002 72.838,94.622 C72.7459995,94.5859998 72.6320007,94.568 72.496,94.568 L71.908,94.568 L71.908,98 L69.676,98 L69.676,89.432 Z M85.042857,91.904 L85.042857,91.7 C85.042857,91.4439987 84.9908575,91.2260009 84.886857,91.046 C84.7828565,90.8659991 84.6228581,90.776 84.406857,90.776 C84.1668558,90.776 83.9908576,90.8539992 83.878857,91.01 C83.7668564,91.1660008 83.710857,91.339999 83.710857,91.532 C83.710857,91.8120014 83.8008561,92.0339992 83.980857,92.198 C84.1608579,92.3620008 84.3868556,92.5039994 84.658857,92.624 C84.9308584,92.7440006 85.2228554,92.8659994 85.534857,92.99 C85.8468586,93.1140006 86.1388556,93.275999 86.410857,93.476 C86.6828584,93.676001 86.9088561,93.9379984 87.088857,94.262 C87.2688579,94.5860016 87.358857,95.0079974 87.358857,95.528 C87.358857,96.4400046 87.0988596,97.1019979 86.578857,97.514 C86.0588544,97.9260021 85.3068619,98.132 84.322857,98.132 C83.8588547,98.132 83.4488588,98.0940004 83.092857,98.018 C82.7368552,97.9419996 82.4368582,97.8100009 82.192857,97.622 C81.9488558,97.4339991 81.7628576,97.1880015 81.634857,96.884 C81.5068564,96.5799985 81.442857,96.2040022 81.442857,95.756 L81.442857,95.456 L83.602857,95.456 L83.602857,95.66 C83.602857,96.0280018 83.6708563,96.2859993 83.806857,96.434 C83.9428577,96.5820007 84.1188559,96.656 84.334857,96.656 C84.5668582,96.656 84.7448564,96.5760008 84.868857,96.416 C84.9928576,96.2559992 85.054857,96.0600012 85.054857,95.828 C85.054857,95.5479986 84.9688579,95.3260008 84.796857,95.162 C84.6248561,94.9979992 84.4088583,94.8580006 84.148857,94.742 C83.8888557,94.6259994 83.6068585,94.5080006 83.302857,94.388 C82.9988555,94.2679994 82.7168583,94.112001 82.456857,93.92 C82.1968557,93.727999 81.9808579,93.4760016 81.808857,93.164 C81.6368561,92.8519984 81.550857,92.4440025 81.550857,91.94 C81.550857,91.0679956 81.7828547,90.4040023 82.246857,89.948 C82.7108593,89.4919977 83.4148523,89.264 84.358857,89.264 C85.3348619,89.264 86.0408548,89.4739979 86.476857,89.894 C86.9128592,90.3140021 87.130857,90.9839954 87.130857,91.904 L85.042857,91.904 Z M93.293714,89.432 L95.525714,89.432 L95.525714,92.576 L96.893714,92.576 L96.893714,89.432 L99.125714,89.432 L99.125714,98 L96.893714,98 L96.893714,94.472 L95.525714,94.472 L95.525714,98 L93.293714,98 L93.293714,89.432 Z M105.240571,89.432 L107.472571,89.432 L107.472571,98 L105.240571,98 L105.240571,89.432 Z M115.735428,93.128 L116.155428,93.128 C116.435429,93.128 116.649427,93.0440008 116.797428,92.876 C116.945429,92.7079992 117.019428,92.4440018 117.019428,92.084 C117.019428,91.3879965 116.731431,91.04 116.155428,91.04 L115.735428,91.04 L115.735428,93.128 Z M113.503428,89.432 L116.851428,89.432 C117.27543,89.432 117.643426,89.4999993 117.955428,89.636 C118.26743,89.7720007 118.525427,89.9579988 118.729428,90.194 C118.933429,90.4300012 119.083428,90.7079984 119.179428,91.028 C119.275428,91.3480016 119.323428,91.6959981 119.323428,92.072 C119.323428,92.9600044 119.08543,93.6259978 118.609428,94.07 C118.133426,94.5140022 117.435433,94.736 116.515428,94.736 L115.735428,94.736 L115.735428,98 L113.503428,98 L113.503428,89.432 Z" id="MEMBERSHIP" fill="#FFFFFF"></path>
                <g id="~Misc/F45-Logo">
                    <g id="F45-Logo">
                        <mask id="mask-2" fill="white">
                            <use xlink:href="#path-1"></use>
                        </mask>
                        <g id="Clip-2"></g>
                        <path d="M63.475635,26.7255764 L50.8051142,26.7255764 L63.5846744,18.3625105 L63.475635,26.7255764 Z M117.283192,35.6389526 C117.050398,30.5806583 114.246735,26.6147383 108.889331,26.6113428 L88.8996623,26.6113428 L88.8996623,19.9370428 L117.307316,19.9370428 L117.307316,9.74478356 L78.396661,9.74478356 L78.396661,26.5014748 L78.396661,26.7265465 L78.396661,26.7255764 L73.9217042,26.7255764 L73.9383496,9.74478356 L61.0473376,9.74478356 L33.7491357,26.7255764 L19.995217,26.7255764 L19.995217,19.9370428 L36.2384662,19.9370428 L52.8773449,9.74478356 L9.692443,9.74478356 L9.692443,50.0466996 L19.995217,50.0466996 L19.995217,36.9100746 L34.3589843,36.9100746 L34.3589843,36.9183207 L63.5846744,36.9183207 L63.5846744,52.2552164 L74.0307435,52.2552164 L74.0307435,36.9183207 L74.1793459,36.9183207 L106.985484,36.9183207 L106.985484,41.3210449 L78.4876076,41.3210449 L78.4876076,52.2552164 L108.889331,52.2552164 C114.391719,52.2552164 117.295736,48.0307549 117.295736,42.8397944 L117.283192,35.6389526 Z M127,0 L0,0 L0,59.7914831 L29.6879013,59.7914831 L29.6879013,46.6626192 L53.8919902,46.6633468 L53.8919902,62 L108.88909,62 C119.376652,62 126.988179,53.9388892 126.988179,42.8322758 L127,0 Z M121.68626,5.34230188 L121.68626,24.3395245 L116.071456,24.3395245 C119.358076,26.5975183 121.431031,30.5149315 121.657553,35.4357089 L121.661895,35.5336927 L121.674439,42.8322758 C121.674439,50.9756057 116.416908,56.6579406 108.88909,56.6579406 L59.2057301,56.6579406 L59.2057301,41.3208024 L30.1952239,41.3208024 L30.1952239,41.3125562 L24.3744026,41.3125562 L24.3744026,54.4491813 L5.31349867,54.4491813 L5.31349867,5.34230188 L121.68626,5.34230188 L121.68626,5.34230188 Z" id="Fill-1" fill="#FEFEFE" mask="url(#mask-2)"></path>
                    </g>
                </g>
            </g>
        </g>
    </g>
</svg>