<?xml version="1.0" encoding="UTF-8"?>
<svg width="18px" height="18px" viewBox="0 0 18 18" version="1.1" xmlns="http://www.w3.org/2000/svg" xmlns:xlink="http://www.w3.org/1999/xlink">
    <!-- Generator: Sketch 51.2 (57519) - http://www.bohemiancoding.com/sketch -->
    <title>Shape</title>
    <desc>Created with Sketch.</desc>
    <defs>
        <path d="M9,0 C4.02921196,0 0,4.02921196 0,9 C0,13.970788 4.02921196,18 9,18 C13.970788,18 18,13.970788 18,9 C18,4.02921196 13.970788,0 9,0 Z M9,0.782608696 C12.7143344,0.782608696 15.8569975,3.26188878 16.8704143,6.65217391 L16.0495924,6.65217391 C15.766814,5.80995235 15.3388248,5.03651504 14.7946672,4.359375 C14.2826087,4.59782609 13.7139946,4.80570652 13.0903533,4.97078804 C13.2600205,5.50271739 13.4006455,6.06368896 13.5,6.65217391 L12.7082203,6.65217391 C12.6149795,6.12483026 12.4865828,5.62347157 12.3337295,5.14962626 C11.4135531,5.3391643 10.4154214,5.44616178 9.39130435,5.46908987 L9.39130435,6.65217391 L8.60869565,6.65217391 L8.60869565,5.46908987 C7.58610743,5.44616178 6.58797574,5.33763587 5.66779891,5.14809783 C5.51341722,5.62347157 5.38502048,6.12483026 5.29178009,6.65217391 L4.5,6.65217391 C4.60088335,6.06368896 4.73997952,5.50271739 4.90964674,4.97078804 C4.28753387,4.80417809 3.71586287,4.59782609 3.20380435,4.359375 C2.66117517,5.03804348 2.23318604,5.80995235 1.95040761,6.65217391 L1.12805726,6.65217391 C2.14300291,3.26188878 5.28566596,0.782608696 9,0.782608696 Z M8.60869565,1.60495943 C8.12262248,1.69972826 7.65183443,1.96875 7.20703135,2.41355309 C6.70414422,2.91491178 6.27921196,3.60122283 5.94140635,4.40828804 C6.77751378,4.57184113 7.68087626,4.66508152 8.60869565,4.68648117 L8.60869565,1.60495943 Z M9.39130435,1.60495943 L9.39130435,4.68648117 C10.3206522,4.66508152 11.2224866,4.57184113 12.0585937,4.40675961 C11.7177312,3.59205183 11.2866848,2.89962626 10.7776835,2.39673913 C10.3374661,1.96263587 9.87126378,1.69972826 9.39130435,1.60495943 Z M6.53753387,1.98862083 C5.4797893,2.36158278 4.53057065,2.96993896 3.75254765,3.74796196 C4.18665091,3.93444313 4.66049583,4.09952465 5.17408278,4.2325067 C5.53481648,3.34137248 5.99337626,2.57099204 6.53753387,1.98862083 Z M11.4594089,1.98862083 C12.0050953,2.57099204 12.4636551,3.34137248 12.8259172,4.2325067 C13.3395042,4.09952465 13.8148779,3.93597157 14.2474523,3.74796196 C13.4694293,2.96993896 12.5202107,2.36158278 11.4594089,1.98862083 Z M0.782608696,7.43478261 L1.60495943,7.43478261 L2.20414422,9.58542809 L2.92866848,7.43478261 L3.88400126,7.43478261 L4.5794837,9.62211287 L5.19089674,7.43478261 L5.99796196,7.43478261 L5.03345778,10.5652174 L4.18206522,10.5652174 L3.39028552,8.22503387 L2.6015627,10.5652174 L1.73182735,10.5652174 L0.782608696,7.43478261 Z M6.39232357,7.43478261 L7.21314548,7.43478261 L7.81233026,9.58542809 L8.53991178,7.43478261 L9.49371613,7.43478261 L10.190727,9.62211287 L10.7990828,7.43478261 L11.6076768,7.43478261 L10.6431727,10.5652174 L9.79178009,10.5652174 L9,8.22503387 L8.21127717,10.5652174 L7.34154222,10.5652174 L6.39232357,7.43478261 Z M11.9821672,7.43478261 L12.8075748,7.43478261 L13.408288,9.58542809 L14.137398,7.43478261 L15.095788,7.43478261 L15.7943273,9.62211287 L16.4057404,7.43478261 L17.2173913,7.43478261 L16.2483018,10.5652174 L15.3953804,10.5652174 L14.6005435,8.22503387 L13.807235,10.5652174 L12.9344431,10.5652174 L11.9821672,7.43478261 Z M12.7082203,11.3478261 L13.5,11.3478261 C13.399117,11.936311 13.2600205,12.4972826 13.0903533,13.029212 C13.7124661,13.1958219 14.2841371,13.4021739 14.7961957,13.640625 C15.3388248,12.9619565 15.7683424,12.1885192 16.0495924,11.3478261 L16.8704143,11.3478261 C15.8569975,14.7365828 12.7143344,17.2173913 9,17.2173913 C5.28566596,17.2173913 2.14300291,14.7381116 1.12805726,11.3478261 L1.95040761,11.3478261 C2.23318604,12.1900477 2.66117517,12.963485 3.20533278,13.640625 C3.7173913,13.4021739 4.28600543,13.1942935 4.90964674,13.029212 C4.73997952,12.4972826 4.59935452,11.936311 4.5,11.3478261 L5.29178009,11.3478261 C5.38502048,11.8751697 5.51341722,12.3765284 5.66627048,12.8503737 C6.58644691,12.6608357 7.584579,12.5538382 8.60869565,12.5309105 L8.60869565,11.3478261 L9.39130435,11.3478261 L9.39130435,12.5309105 C10.4138926,12.5538382 11.4120247,12.6623641 12.3322011,12.8519022 C12.4865828,12.3765284 12.6149795,11.8751697 12.7082203,11.3478261 Z M8.60869565,13.3135192 C7.68393352,13.3349185 6.78668478,13.4281589 5.95516304,13.591712 C6.600204,15.121773 7.54789422,16.1810464 8.60869565,16.3935121 L8.60869565,13.3135192 Z M9.39130435,13.3135192 L9.39130435,16.3935121 C9.87737791,16.2987433 10.348166,16.0297216 10.7929687,15.5849185 C11.2958562,15.0850882 11.720788,14.3987772 12.0585937,13.591712 C11.2224866,13.4281589 10.3191237,13.3349185 9.39130435,13.3135192 Z M12.8259172,13.7674933 C12.4651835,14.6586279 12.0066237,15.4290083 11.4624661,16.0113792 C12.5202107,15.6384172 13.4694293,15.030061 14.2474523,14.252038 C13.8133491,14.0655573 13.3395042,13.9004757 12.8259172,13.7674933 Z M5.16185452,13.7690217 C4.65285326,13.9035326 4.18053678,14.0640284 3.75101922,14.2505096 C4.52445652,15.0224185 5.46450417,15.6277174 6.51460617,16.0022078 C5.97961957,15.4274795 5.52258822,14.664742 5.16185452,13.7690217 Z" id="path-1"></path>
    </defs>
    <g id="Icons" stroke="none" stroke-width="1" fill="none" fill-rule="evenodd">
        <g id="Icon/WWW" transform="translate(-3.000000, -3.000000)">
            <g id="icons8-domain_filled" transform="translate(3.000000, 3.000000)">
                <mask id="mask-2" fill="white">
                    <use xlink:href="#path-1"></use>
                </mask>
                <use id="Shape" fill="#FFFFFF" fill-rule="nonzero" xlink:href="#path-1"></use>
            </g>
        </g>
    </g>
</svg>