<?xml version="1.0" encoding="UTF-8"?>
<svg width="12px" height="18px" viewBox="0 0 12 18" version="1.1" xmlns="http://www.w3.org/2000/svg" xmlns:xlink="http://www.w3.org/1999/xlink">
    <!-- Generator: Sketch 51.2 (57519) - http://www.bohemiancoding.com/sketch -->
    <title>smartphone</title>
    <desc>Created with Sketch.</desc>
    <defs>
        <path d="M7.51563405,3 C6.67834395,3 6,3.64032139 6,4.43149955 L6,19.5685005 C6,20.3596786 6.67834395,21 7.51563405,21 L16.4834974,21 C17.3207875,21 18,20.3596786 18,19.5685005 L18,4.43149955 C18,3.64032139 17.3207875,3 16.4834974,3 L7.51563405,3 Z M10.828315,4.14290399 L13.1586566,4.14290399 C13.425304,4.14290399 13.641575,4.34787243 13.641575,4.59957367 C13.641575,4.85209478 13.425304,5.06526195 13.1586566,5.06526195 L10.828315,5.06526195 C10.5607991,5.06526195 10.3445281,4.85209478 10.3445281,4.59957367 C10.3445281,4.34787243 10.5607991,4.14290399 10.828315,4.14290399 L10.828315,4.14290399 Z M11.0133179,19.3217185 C11.0133179,18.811757 11.4519398,18.3977208 11.9930515,18.3977208 C12.5341633,18.3977208 12.9727852,18.811757 12.9727852,19.3217185 C12.9727852,19.8324998 12.5341633,20.246536 11.9930515,20.246536 C11.4519398,20.246536 11.0133179,19.8324998 11.0133179,19.3217185 Z M15.4559931,17.7844552 L8.51621309,17.7844552 C8.03416329,17.7844552 7.6433121,17.415512 7.6433121,16.9604821 L7.6433121,7.02967943 C7.6433121,6.5746495 8.03416329,6.20570632 8.51621309,6.20570632 L15.4559931,6.20570632 C15.9380428,6.20570632 16.328894,6.5746495 16.328894,7.02967943 L16.328894,16.9604821 C16.328894,17.415512 15.9380428,17.7844552 15.4559931,17.7844552 Z" id="path-1"></path>
    </defs>
    <g id="Icons" stroke="none" stroke-width="1" fill="none" fill-rule="evenodd">
        <g id="Icon/Mobile" transform="translate(-6.000000, -3.000000)">
            <mask id="mask-2" fill="white">
                <use xlink:href="#path-1"></use>
            </mask>
            <use id="smartphone" fill="#408CE0" xlink:href="#path-1"></use>
        </g>
    </g>
</svg>