<?xml version="1.0" encoding="UTF-8"?>
<svg width="8px" height="19px" viewBox="0 0 8 19" version="1.1" xmlns="http://www.w3.org/2000/svg" xmlns:xlink="http://www.w3.org/1999/xlink">
    <!-- Generator: Sketch 51.2 (57519) - http://www.bohemiancoding.com/sketch -->
    <title>user</title>
    <desc>Created with Sketch.</desc>
    <defs>
        <path d="M14.5099693,5.54849553 C14.5099693,6.95671067 13.3865031,8.09776994 12.0007669,8.09776994 C10.6142638,8.09776994 9.49079755,6.95671067 9.49079755,5.54849553 C9.49079755,4.14105928 10.6142638,3 12.0007669,3 C13.3865031,3 14.5099693,4.14105928 14.5099693,5.54849553 L14.5099693,5.54849553 Z M8,10.2420267 L8.42868098,15.0796507 C8.46165644,15.4519554 8.76150307,15.7424777 9.1303681,15.7572764 L9.44631902,15.7705173 C9.70015337,15.7806428 9.90490798,15.9839305 9.92101227,16.2417398 L10.3052147,21.3208166 C10.333589,21.7040256 10.648773,22 11.0268405,22 L12.9923313,22 C13.3703988,22 13.6855828,21.7040256 13.7139571,21.3200377 L14.095092,16.2370665 C14.1127301,15.9815938 14.3167178,15.7806428 14.5690184,15.7697385 L14.8842025,15.7564975 C15.2461656,15.7409199 15.541411,15.4550709 15.5736196,15.0882184 L16,10.2420267 C16,9.59633516 15.4846626,9.07292777 14.8489264,9.07292777 L9.15107362,9.07292777 C8.51533742,9.07292777 8,9.59633516 8,10.2420267 L8,10.2420267 Z" id="path-1"></path>
    </defs>
    <g id="Icons" stroke="none" stroke-width="1" fill="none" fill-rule="evenodd">
        <g id="Icon/Person-Male" transform="translate(-8.000000, -3.000000)">
            <mask id="mask-2" fill="white">
                <use xlink:href="#path-1"></use>
            </mask>
            <use id="user" fill="#408CE0" xlink:href="#path-1"></use>
        </g>
    </g>
</svg>