<?xml version="1.0" encoding="UTF-8"?>
<svg width="14px" height="18px" viewBox="0 0 14 18" version="1.1" xmlns="http://www.w3.org/2000/svg" xmlns:xlink="http://www.w3.org/1999/xlink">
    <!-- Generator: Sketch 51.2 (57519) - http://www.bohemiancoding.com/sketch -->
    <title>lockedalt</title>
    <desc>Created with Sketch.</desc>
    <defs>
        <path d="M17.1213107,10.1456147 L17.1213107,8.31603536 C17.1213107,5.52246539 14.9572286,3.08592898 12.1496998,3.00233088 C9.2449975,2.91612034 6.86293147,5.23248447 6.86293147,8.10268603 L6.86293147,10.1430023 C6.86293147,10.46172 6.60730365,10.6933564 6.2903952,10.7360263 C5.56203102,10.8335574 5,11.4544475 5,12.2068304 L5,19.5161337 C5,20.3355692 5.66795898,21 6.49174587,21 L17.5082541,21 C18.332041,21 19,20.3355692 19,19.5161337 L19,12.2068304 C19,11.4588016 18.416083,10.8405239 17.6877189,10.7368971 C17.3734367,10.6924856 17.1213107,10.46172 17.1213107,10.1456147 Z M9.32466233,8.05043722 C9.32466233,6.54480053 10.5905453,5.33436965 12.1208104,5.4144845 C13.5565283,5.48850366 14.6324412,6.77034125 14.6324412,8.19934634 L14.6324412,10.0759496 C14.6324412,10.4329832 14.3409205,10.7220933 13.9828664,10.7220933 L9.97423712,10.7220933 C9.61530765,10.7220933 9.32466233,10.4329832 9.32466233,10.0759496 L9.32466233,8.05043722 L9.32466233,8.05043722 Z" id="path-1"></path>
    </defs>
    <g id="Icons" stroke="none" stroke-width="1" fill="none" fill-rule="evenodd">
        <g id="Icon/Lock" transform="translate(-5.000000, -3.000000)">
            <mask id="mask-2" fill="white">
                <use xlink:href="#path-1"></use>
            </mask>
            <use id="lockedalt" fill="#FF0439" xlink:href="#path-1"></use>
        </g>
    </g>
</svg>